<?xml version="1.0" encoding="utf-8"?>
<svg version="1.1" id="Layer_1" xmlns="http://www.w3.org/2000/svg" xmlns:xlink="http://www.w3.org/1999/xlink" x="0px" y="0px"
	 viewBox="0 0 150 150" style="enable-background:new 0 0 150 150;" xml:space="preserve">
<style type="text/css">
	.st0{fill:#273042;}
</style>
<g id="Page-1">
	<g id="Group-2" transform="translate(69.5, 122.500000)">
		<path id="Shape_3_" class="st0" d="M6.3-90.3C-0.5-93-8-93-14.8-90.3s-12.3,8.1-15,14.9c-6.1,13.5,0.7,29.7,14.3,35.1
			c3.4,1.4,6.8,2,10.2,2c10.9,0,21.1-6.1,25.2-16.9c2.7-6.8,2.7-14.2,0-20.9C17.9-82.2,13.1-87.6,6.3-90.3z">
      <animate id="bigIn" attributeName="fill" from="#273042" to="#17BCE2" dur="13s" begin="0s;bigOut.end"/>
      <animate id="bigOut" attributeName="fill" from="#17BCE2" to="#273042" dur="3s" begin="smallOut.end"/>
    </path>
		<g id="Group-2_1_" transform="translate(89.5, 157.500000)">
			<path id="Shape_1_" class="st0" d="M-53.1-195.2c-4.2-1.6-8.7-1.6-12.9,0c-4.2,1.6-7.5,4.9-9.2,9.1c-3.7,8.2,0.4,18.1,8.7,21.4
				c2.1,0.9,4.2,1.2,6.2,1.2c6.7,0,12.9-3.7,15.4-10.3c1.7-4.2,1.7-8.7,0-12.8C-46-190.2-48.9-193.5-53.1-195.2z">
        <animate id="smallIn" attributeName="fill" from="#273042" to="#17BCE2" dur="5s" begin="bigIn.begin+5s"/>
        <animate id="smallOut" attributeName="fill" from="#17BCE2" to="#273042" dur="3s" begin="smallIn.end"/>
      </path>
		</g>
	</g>
</g>
</svg>
