<?xml version="1.0" encoding="utf-8"?>
<svg version="1.1" id="Layer_1" xmlns="http://www.w3.org/2000/svg" xmlns:xlink="http://www.w3.org/1999/xlink" x="0px" y="0px"
	 viewBox="0 0 150 150" style="enable-background:new 0 0 150 150;" xml:space="preserve">
<style type="text/css">
	.st0{fill:#273042;}
</style>
<title>Group</title>
<desc>Created with Sketch.</desc>
<g id="Page-1">
	<g id="Group-2" transform="translate(75.500000, 145.500000)">
		<path id="Shape_3_" class="st0" d="M-4.7-117.3c-6.8-2.7-14.3-2.7-21.1,0s-12.3,8.1-15,14.9c-6.1,13.5,0.7,29.7,14.3,35.1
			c3.4,1.4,6.8,2,10.2,2c10.9,0,21.1-6.1,25.2-16.9c2.7-6.8,2.7-14.2,0-20.9C6.9-109.2,2.1-114.6-4.7-117.3z">
      <animate id="biggestIn" attributeName="fill" from="#273042" to="#17BCE2" dur="5s" begin="0s;biggestOut.end"/>
      <animate id="biggestOut" attributeName="fill" from="#17BCE2" to="#273042" dur="1s" begin="midOut.end"/>
    </path>
		<g id="Group-2_1_" transform="translate(95.500000, 165.500000)">
			<path id="Shape_1_" class="st0" d="M-53.1-248.6c-4.2-1.6-8.7-1.6-12.9,0s-7.5,4.9-9.2,9.1c-3.7,8.2,0.4,18.1,8.7,21.4
				c2.1,0.9,4.2,1.2,6.2,1.2c6.7,0,12.9-3.7,15.4-10.3c1.7-4.2,1.7-8.7,0-12.8C-46-243.6-48.9-246.9-53.1-248.6z">
        <animate id="midIn" attributeName="fill" from="#273042" to="#17BCE2" dur="3s" begin="biggestIn.begin+1s"/>
        <animate id="midOut" attributeName="fill" from="#17BCE2" to="#273042" dur="1s" begin="smallestOut.end"/>
      </path>
		</g>
		<g id="Group-2_2_" transform="translate(95.500000, 165.500000)">
			<path id="Shape_2_" class="st0" d="M-90.1-216.1c-2.8-1.1-5.9-1.1-8.8,0c-2.8,1.1-5.1,3.4-6.2,6.2c-2.5,5.6,0.3,12.3,5.9,14.6
				c1.4,0.6,2.8,0.8,4.2,0.8c4.5,0,8.8-2.5,10.5-7c1.1-2.8,1.1-5.9,0-8.7C-85.2-212.7-87.2-215-90.1-216.1z">
        <animate id="smallestIn" attributeName="fill" from="#273042" to="#17BCE2" dur="1s" begin="midIn.begin+1s"/>
        <animate id="smallestOut" attributeName="fill" from="#17BCE2" to="#273042" dur="1s" begin="smallestIn.end"/>
      </path>
		</g>
	</g>
</g>
</svg>
